<mxfile host="app.diagrams.net" modified="2021-11-12T06:50:08.241Z" agent="5.0 (Windows NT 10.0; Win64; x64) AppleWebKit/537.36 (KHTML, like Gecko) Chrome/95.0.4638.54 Safari/537.36" etag="B5QWM0DGuJLGp4Jp7cye" version="15.2.9" type="github">
  <diagram id="jZkwkyjEGLrXau2bkI0n" name="Page-1">
    <mxGraphModel dx="1038" dy="579" grid="1" gridSize="10" guides="1" tooltips="1" connect="1" arrows="1" fold="1" page="1" pageScale="1" pageWidth="827" pageHeight="1169" math="0" shadow="0">
      <root>
        <mxCell id="0" />
        <mxCell id="1" parent="0" />
        <mxCell id="056Ldx9DOaQiwuDyh4kQ-2" style="edgeStyle=orthogonalEdgeStyle;rounded=0;orthogonalLoop=1;jettySize=auto;html=1;" edge="1" parent="1" source="056Ldx9DOaQiwuDyh4kQ-1">
          <mxGeometry relative="1" as="geometry">
            <mxPoint x="160" y="90" as="targetPoint" />
          </mxGeometry>
        </mxCell>
        <mxCell id="056Ldx9DOaQiwuDyh4kQ-4" value="" style="edgeStyle=orthogonalEdgeStyle;rounded=0;orthogonalLoop=1;jettySize=auto;html=1;" edge="1" parent="1" source="056Ldx9DOaQiwuDyh4kQ-1" target="056Ldx9DOaQiwuDyh4kQ-3">
          <mxGeometry relative="1" as="geometry">
            <Array as="points">
              <mxPoint x="130" y="60" />
              <mxPoint x="130" y="55" />
            </Array>
          </mxGeometry>
        </mxCell>
        <mxCell id="056Ldx9DOaQiwuDyh4kQ-1" value="班级类型" style="rounded=0;whiteSpace=wrap;html=1;" vertex="1" parent="1">
          <mxGeometry x="30" y="50" width="80" height="40" as="geometry" />
        </mxCell>
        <mxCell id="056Ldx9DOaQiwuDyh4kQ-3" value="行政班" style="whiteSpace=wrap;html=1;rounded=0;" vertex="1" parent="1">
          <mxGeometry x="150" y="40" width="120" height="30" as="geometry" />
        </mxCell>
        <mxCell id="056Ldx9DOaQiwuDyh4kQ-5" value="教学班" style="whiteSpace=wrap;html=1;rounded=0;" vertex="1" parent="1">
          <mxGeometry x="150" y="70" width="120" height="30" as="geometry" />
        </mxCell>
        <mxCell id="056Ldx9DOaQiwuDyh4kQ-7" style="edgeStyle=orthogonalEdgeStyle;rounded=0;orthogonalLoop=1;jettySize=auto;html=1;" edge="1" parent="1" source="056Ldx9DOaQiwuDyh4kQ-6" target="056Ldx9DOaQiwuDyh4kQ-8">
          <mxGeometry relative="1" as="geometry">
            <mxPoint x="320" y="70" as="targetPoint" />
          </mxGeometry>
        </mxCell>
        <mxCell id="056Ldx9DOaQiwuDyh4kQ-6" value="" style="shape=curlyBracket;whiteSpace=wrap;html=1;rounded=1;flipH=1;size=0;" vertex="1" parent="1">
          <mxGeometry x="270" y="45" width="20" height="50" as="geometry" />
        </mxCell>
        <mxCell id="056Ldx9DOaQiwuDyh4kQ-8" value="二选一必选" style="text;html=1;strokeColor=none;fillColor=none;align=center;verticalAlign=middle;whiteSpace=wrap;rounded=0;" vertex="1" parent="1">
          <mxGeometry x="320" y="60" width="80" height="20" as="geometry" />
        </mxCell>
        <mxCell id="056Ldx9DOaQiwuDyh4kQ-10" style="edgeStyle=orthogonalEdgeStyle;rounded=0;orthogonalLoop=1;jettySize=auto;html=1;" edge="1" parent="1" source="056Ldx9DOaQiwuDyh4kQ-9" target="056Ldx9DOaQiwuDyh4kQ-11">
          <mxGeometry relative="1" as="geometry">
            <mxPoint x="150" y="135" as="targetPoint" />
          </mxGeometry>
        </mxCell>
        <mxCell id="056Ldx9DOaQiwuDyh4kQ-9" value="学校名称" style="rounded=0;whiteSpace=wrap;html=1;" vertex="1" parent="1">
          <mxGeometry x="30" y="120" width="80" height="30" as="geometry" />
        </mxCell>
        <mxCell id="056Ldx9DOaQiwuDyh4kQ-11" value="显示当前学校名称" style="text;html=1;strokeColor=none;fillColor=none;align=center;verticalAlign=middle;whiteSpace=wrap;rounded=0;" vertex="1" parent="1">
          <mxGeometry x="160" y="125" width="100" height="20" as="geometry" />
        </mxCell>
        <mxCell id="056Ldx9DOaQiwuDyh4kQ-14" style="edgeStyle=orthogonalEdgeStyle;rounded=0;orthogonalLoop=1;jettySize=auto;html=1;" edge="1" parent="1" source="056Ldx9DOaQiwuDyh4kQ-13" target="056Ldx9DOaQiwuDyh4kQ-15">
          <mxGeometry relative="1" as="geometry">
            <mxPoint x="150" y="185" as="targetPoint" />
          </mxGeometry>
        </mxCell>
        <mxCell id="056Ldx9DOaQiwuDyh4kQ-13" value="所属学科" style="rounded=0;whiteSpace=wrap;html=1;" vertex="1" parent="1">
          <mxGeometry x="30" y="170" width="80" height="30" as="geometry" />
        </mxCell>
        <mxCell id="056Ldx9DOaQiwuDyh4kQ-15" value="&lt;span style=&quot;color: rgba(0 , 0 , 0 , 0) ; font-family: monospace ; font-size: 0px&quot;&gt;1111&lt;/span&gt;" style="text;html=1;strokeColor=none;fillColor=none;align=center;verticalAlign=middle;whiteSpace=wrap;rounded=0;" vertex="1" parent="1">
          <mxGeometry x="160" y="175" width="40" height="20" as="geometry" />
        </mxCell>
        <mxCell id="056Ldx9DOaQiwuDyh4kQ-24" style="edgeStyle=orthogonalEdgeStyle;rounded=0;orthogonalLoop=1;jettySize=auto;html=1;" edge="1" parent="1" source="056Ldx9DOaQiwuDyh4kQ-18">
          <mxGeometry relative="1" as="geometry">
            <mxPoint x="160" y="275" as="targetPoint" />
          </mxGeometry>
        </mxCell>
        <mxCell id="056Ldx9DOaQiwuDyh4kQ-18" value="班级命名设置" style="rounded=0;whiteSpace=wrap;html=1;" vertex="1" parent="1">
          <mxGeometry x="30" y="260" width="80" height="30" as="geometry" />
        </mxCell>
        <mxCell id="056Ldx9DOaQiwuDyh4kQ-19" style="edgeStyle=orthogonalEdgeStyle;rounded=0;orthogonalLoop=1;jettySize=auto;html=1;" edge="1" parent="1" source="056Ldx9DOaQiwuDyh4kQ-20" target="056Ldx9DOaQiwuDyh4kQ-21">
          <mxGeometry relative="1" as="geometry">
            <mxPoint x="150" y="225" as="targetPoint" />
          </mxGeometry>
        </mxCell>
        <mxCell id="056Ldx9DOaQiwuDyh4kQ-20" value="所属年级" style="rounded=0;whiteSpace=wrap;html=1;" vertex="1" parent="1">
          <mxGeometry x="30" y="210" width="80" height="30" as="geometry" />
        </mxCell>
        <mxCell id="056Ldx9DOaQiwuDyh4kQ-21" value="&lt;span style=&quot;color: rgba(0 , 0 , 0 , 0) ; font-family: monospace ; font-size: 0px&quot;&gt;%3CmxGraphModel%3E%3Croot%3E%3CmxCell%20id%3D%220%22%2F%3E%3CmxCell%20id%3D%221%22%20parent%3D%220%22%2F%3E%3CmxCell%20id%3D%222%22%20value%3D%22%E5%AD%A6%E6%A0%A1%E5%90%8D%E7%A7%B0%22%20style%3D%22rounded%3D0%3BwhiteSpace%3Dwrap%3Bhtml%3D1%3B%22%20vertex%3D%221%22%20parent%3D%221%22%3E%3CmxGeometry%20x%3D%2230%22%20y%3D%22120%22%20width%3D%2280%22%20height%3D%2230%22%20as%3D%22geometry%22%2F%3E%3C%2FmxCell%3E%3C%2Froot%3E%3C%2FmxGraphModel%3E&lt;/span&gt;" style="text;html=1;strokeColor=none;fillColor=none;align=center;verticalAlign=middle;whiteSpace=wrap;rounded=0;" vertex="1" parent="1">
          <mxGeometry x="140" y="215" width="40" height="20" as="geometry" />
        </mxCell>
        <mxCell id="056Ldx9DOaQiwuDyh4kQ-22" value="所属年级为当前可用的年级，例如新高一、高一、高二、高三，展示格式为“【年级】+【XXXX】年入学”。&lt;font color=&quot;#ff0000&quot;&gt;接口获取。&lt;/font&gt;" style="text;html=1;strokeColor=none;fillColor=none;align=center;verticalAlign=middle;whiteSpace=wrap;rounded=0;" vertex="1" parent="1">
          <mxGeometry x="140" y="220" width="450" height="20" as="geometry" />
        </mxCell>
        <mxCell id="056Ldx9DOaQiwuDyh4kQ-23" value="班级类型选择教学班时出现，&lt;font color=&quot;#ff0000&quot;&gt;列表接口获取&lt;/font&gt;" style="text;html=1;strokeColor=none;fillColor=none;align=center;verticalAlign=middle;whiteSpace=wrap;rounded=0;" vertex="1" parent="1">
          <mxGeometry x="160" y="175" width="400" height="20" as="geometry" />
        </mxCell>
        <mxCell id="056Ldx9DOaQiwuDyh4kQ-25" value="班级号" style="whiteSpace=wrap;html=1;rounded=0;" vertex="1" parent="1">
          <mxGeometry x="160" y="245" width="120" height="35" as="geometry" />
        </mxCell>
        <mxCell id="056Ldx9DOaQiwuDyh4kQ-26" value="自定义" style="whiteSpace=wrap;html=1;rounded=0;" vertex="1" parent="1">
          <mxGeometry x="160" y="275" width="120" height="30" as="geometry" />
        </mxCell>
        <mxCell id="056Ldx9DOaQiwuDyh4kQ-27" style="edgeStyle=orthogonalEdgeStyle;rounded=0;orthogonalLoop=1;jettySize=auto;html=1;" edge="1" parent="1" source="056Ldx9DOaQiwuDyh4kQ-28" target="056Ldx9DOaQiwuDyh4kQ-29">
          <mxGeometry relative="1" as="geometry">
            <mxPoint x="330" y="275" as="targetPoint" />
          </mxGeometry>
        </mxCell>
        <mxCell id="056Ldx9DOaQiwuDyh4kQ-28" value="" style="shape=curlyBracket;whiteSpace=wrap;html=1;rounded=1;flipH=1;size=0;" vertex="1" parent="1">
          <mxGeometry x="280" y="250" width="20" height="50" as="geometry" />
        </mxCell>
        <mxCell id="056Ldx9DOaQiwuDyh4kQ-29" value="二选一必选" style="text;html=1;strokeColor=none;fillColor=none;align=center;verticalAlign=middle;whiteSpace=wrap;rounded=0;" vertex="1" parent="1">
          <mxGeometry x="330" y="265" width="80" height="20" as="geometry" />
        </mxCell>
        <mxCell id="056Ldx9DOaQiwuDyh4kQ-36" style="edgeStyle=orthogonalEdgeStyle;rounded=0;orthogonalLoop=1;jettySize=auto;html=1;entryX=0;entryY=0.5;entryDx=0;entryDy=0;" edge="1" parent="1" source="056Ldx9DOaQiwuDyh4kQ-30" target="056Ldx9DOaQiwuDyh4kQ-32">
          <mxGeometry relative="1" as="geometry">
            <mxPoint x="180" y="415" as="targetPoint" />
            <Array as="points">
              <mxPoint x="180" y="415" />
              <mxPoint x="180" y="418" />
            </Array>
          </mxGeometry>
        </mxCell>
        <mxCell id="056Ldx9DOaQiwuDyh4kQ-30" value="加班设置" style="rounded=0;whiteSpace=wrap;html=1;" vertex="1" parent="1">
          <mxGeometry x="30" y="400" width="80" height="30" as="geometry" />
        </mxCell>
        <mxCell id="056Ldx9DOaQiwuDyh4kQ-31" value="不限制" style="whiteSpace=wrap;html=1;rounded=0;" vertex="1" parent="1">
          <mxGeometry x="190" y="370" width="120" height="35" as="geometry" />
        </mxCell>
        <mxCell id="056Ldx9DOaQiwuDyh4kQ-32" value="禁止注册用户加班" style="whiteSpace=wrap;html=1;rounded=0;" vertex="1" parent="1">
          <mxGeometry x="190" y="400" width="120" height="30" as="geometry" />
        </mxCell>
        <mxCell id="056Ldx9DOaQiwuDyh4kQ-33" style="edgeStyle=orthogonalEdgeStyle;rounded=0;orthogonalLoop=1;jettySize=auto;html=1;" edge="1" parent="1" source="056Ldx9DOaQiwuDyh4kQ-34" target="056Ldx9DOaQiwuDyh4kQ-35">
          <mxGeometry relative="1" as="geometry">
            <mxPoint x="360" y="400" as="targetPoint" />
          </mxGeometry>
        </mxCell>
        <mxCell id="056Ldx9DOaQiwuDyh4kQ-34" value="" style="shape=curlyBracket;whiteSpace=wrap;html=1;rounded=1;flipH=1;size=0;" vertex="1" parent="1">
          <mxGeometry x="310" y="375" width="20" height="80" as="geometry" />
        </mxCell>
        <mxCell id="056Ldx9DOaQiwuDyh4kQ-35" value="三选一必选" style="text;html=1;strokeColor=none;fillColor=none;align=center;verticalAlign=middle;whiteSpace=wrap;rounded=0;" vertex="1" parent="1">
          <mxGeometry x="360" y="405" width="80" height="20" as="geometry" />
        </mxCell>
        <mxCell id="056Ldx9DOaQiwuDyh4kQ-37" value="禁止学生自主加班" style="whiteSpace=wrap;html=1;rounded=0;" vertex="1" parent="1">
          <mxGeometry x="190" y="430" width="120" height="30" as="geometry" />
        </mxCell>
        <mxCell id="056Ldx9DOaQiwuDyh4kQ-40" style="edgeStyle=orthogonalEdgeStyle;rounded=0;orthogonalLoop=1;jettySize=auto;html=1;entryX=0;entryY=0;entryDx=0;entryDy=0;" edge="1" parent="1" source="056Ldx9DOaQiwuDyh4kQ-41" target="056Ldx9DOaQiwuDyh4kQ-43">
          <mxGeometry relative="1" as="geometry">
            <mxPoint x="180" y="495" as="targetPoint" />
            <Array as="points">
              <mxPoint x="180" y="495" />
              <mxPoint x="180" y="498" />
              <mxPoint x="195" y="498" />
            </Array>
          </mxGeometry>
        </mxCell>
        <mxCell id="056Ldx9DOaQiwuDyh4kQ-41" value="学生改名设置" style="rounded=0;whiteSpace=wrap;html=1;" vertex="1" parent="1">
          <mxGeometry x="30" y="480" width="80" height="30" as="geometry" />
        </mxCell>
        <mxCell id="056Ldx9DOaQiwuDyh4kQ-42" value="禁止学生改名" style="whiteSpace=wrap;html=1;rounded=0;" vertex="1" parent="1">
          <mxGeometry x="195" y="470" width="120" height="35" as="geometry" />
        </mxCell>
        <mxCell id="056Ldx9DOaQiwuDyh4kQ-43" value="容许学生改名" style="whiteSpace=wrap;html=1;rounded=0;" vertex="1" parent="1">
          <mxGeometry x="195" y="500" width="120" height="30" as="geometry" />
        </mxCell>
        <mxCell id="056Ldx9DOaQiwuDyh4kQ-44" style="edgeStyle=orthogonalEdgeStyle;rounded=0;orthogonalLoop=1;jettySize=auto;html=1;" edge="1" parent="1" source="056Ldx9DOaQiwuDyh4kQ-45">
          <mxGeometry relative="1" as="geometry">
            <mxPoint x="374" y="497.5" as="targetPoint" />
          </mxGeometry>
        </mxCell>
        <mxCell id="056Ldx9DOaQiwuDyh4kQ-45" value="" style="shape=curlyBracket;whiteSpace=wrap;html=1;rounded=1;flipH=1;size=0;" vertex="1" parent="1">
          <mxGeometry x="315" y="475" width="20" height="45" as="geometry" />
        </mxCell>
        <mxCell id="056Ldx9DOaQiwuDyh4kQ-46" value="二选一必选" style="text;html=1;strokeColor=none;fillColor=none;align=center;verticalAlign=middle;whiteSpace=wrap;rounded=0;" vertex="1" parent="1">
          <mxGeometry x="374" y="507.5" width="80" height="20" as="geometry" />
        </mxCell>
        <mxCell id="056Ldx9DOaQiwuDyh4kQ-50" style="edgeStyle=orthogonalEdgeStyle;rounded=0;orthogonalLoop=1;jettySize=auto;html=1;" edge="1" parent="1" source="056Ldx9DOaQiwuDyh4kQ-48" target="056Ldx9DOaQiwuDyh4kQ-51">
          <mxGeometry relative="1" as="geometry">
            <mxPoint x="150" y="562.5" as="targetPoint" />
          </mxGeometry>
        </mxCell>
        <mxCell id="056Ldx9DOaQiwuDyh4kQ-48" value="班主任手机号" style="rounded=0;whiteSpace=wrap;html=1;" vertex="1" parent="1">
          <mxGeometry x="30" y="547.5" width="80" height="30" as="geometry" />
        </mxCell>
        <mxCell id="056Ldx9DOaQiwuDyh4kQ-53" style="edgeStyle=orthogonalEdgeStyle;rounded=0;orthogonalLoop=1;jettySize=auto;html=1;" edge="1" parent="1" source="056Ldx9DOaQiwuDyh4kQ-49">
          <mxGeometry relative="1" as="geometry">
            <mxPoint x="200" y="617.5" as="targetPoint" />
          </mxGeometry>
        </mxCell>
        <mxCell id="056Ldx9DOaQiwuDyh4kQ-49" value="班主任姓名" style="rounded=0;whiteSpace=wrap;html=1;" vertex="1" parent="1">
          <mxGeometry x="30" y="602.5" width="80" height="30" as="geometry" />
        </mxCell>
        <mxCell id="056Ldx9DOaQiwuDyh4kQ-51" value="输入框" style="rounded=0;whiteSpace=wrap;html=1;" vertex="1" parent="1">
          <mxGeometry x="195" y="545" width="120" height="35" as="geometry" />
        </mxCell>
        <mxCell id="056Ldx9DOaQiwuDyh4kQ-52" value="验证信息" style="rounded=0;whiteSpace=wrap;html=1;" vertex="1" parent="1">
          <mxGeometry x="320" y="545" width="80" height="35" as="geometry" />
        </mxCell>
        <mxCell id="056Ldx9DOaQiwuDyh4kQ-54" value="输入框" style="rounded=0;whiteSpace=wrap;html=1;" vertex="1" parent="1">
          <mxGeometry x="200" y="597.5" width="120" height="35" as="geometry" />
        </mxCell>
        <mxCell id="056Ldx9DOaQiwuDyh4kQ-56" style="edgeStyle=orthogonalEdgeStyle;rounded=0;orthogonalLoop=1;jettySize=auto;html=1;" edge="1" parent="1" source="056Ldx9DOaQiwuDyh4kQ-55" target="056Ldx9DOaQiwuDyh4kQ-57">
          <mxGeometry relative="1" as="geometry">
            <mxPoint x="160" y="337.5" as="targetPoint" />
          </mxGeometry>
        </mxCell>
        <mxCell id="056Ldx9DOaQiwuDyh4kQ-55" value="班级号" style="rounded=0;whiteSpace=wrap;html=1;" vertex="1" parent="1">
          <mxGeometry x="30" y="322.5" width="80" height="30" as="geometry" />
        </mxCell>
        <mxCell id="056Ldx9DOaQiwuDyh4kQ-58" style="edgeStyle=orthogonalEdgeStyle;rounded=0;orthogonalLoop=1;jettySize=auto;html=1;" edge="1" parent="1" source="056Ldx9DOaQiwuDyh4kQ-57">
          <mxGeometry relative="1" as="geometry">
            <mxPoint x="330" y="337.5" as="targetPoint" />
          </mxGeometry>
        </mxCell>
        <mxCell id="056Ldx9DOaQiwuDyh4kQ-57" value="输入框" style="rounded=0;whiteSpace=wrap;html=1;" vertex="1" parent="1">
          <mxGeometry x="170" y="320" width="120" height="35" as="geometry" />
        </mxCell>
        <mxCell id="056Ldx9DOaQiwuDyh4kQ-59" value="必填，当班级命令设置选为“自定义”，班级号限制10个字" style="text;html=1;strokeColor=none;fillColor=none;align=center;verticalAlign=middle;whiteSpace=wrap;rounded=0;" vertex="1" parent="1">
          <mxGeometry x="345" y="327.5" width="315" height="20" as="geometry" />
        </mxCell>
        <mxCell id="056Ldx9DOaQiwuDyh4kQ-62" style="edgeStyle=orthogonalEdgeStyle;rounded=0;orthogonalLoop=1;jettySize=auto;html=1;" edge="1" parent="1" source="056Ldx9DOaQiwuDyh4kQ-60">
          <mxGeometry relative="1" as="geometry">
            <mxPoint x="237.5" y="770" as="targetPoint" />
          </mxGeometry>
        </mxCell>
        <mxCell id="056Ldx9DOaQiwuDyh4kQ-60" value="取消" style="rounded=0;whiteSpace=wrap;html=1;" vertex="1" parent="1">
          <mxGeometry x="195" y="700" width="85" height="30" as="geometry" />
        </mxCell>
        <mxCell id="056Ldx9DOaQiwuDyh4kQ-64" style="edgeStyle=orthogonalEdgeStyle;rounded=0;orthogonalLoop=1;jettySize=auto;html=1;" edge="1" parent="1" source="056Ldx9DOaQiwuDyh4kQ-61" target="056Ldx9DOaQiwuDyh4kQ-67">
          <mxGeometry relative="1" as="geometry">
            <mxPoint x="343" y="760" as="targetPoint" />
          </mxGeometry>
        </mxCell>
        <mxCell id="056Ldx9DOaQiwuDyh4kQ-61" value="确定" style="rounded=0;whiteSpace=wrap;html=1;" vertex="1" parent="1">
          <mxGeometry x="300" y="700" width="85" height="30" as="geometry" />
        </mxCell>
        <mxCell id="056Ldx9DOaQiwuDyh4kQ-63" value="关闭弹窗" style="text;html=1;strokeColor=none;fillColor=none;align=center;verticalAlign=middle;whiteSpace=wrap;rounded=0;" vertex="1" parent="1">
          <mxGeometry x="210" y="780" width="50" height="20" as="geometry" />
        </mxCell>
        <mxCell id="056Ldx9DOaQiwuDyh4kQ-68" style="edgeStyle=orthogonalEdgeStyle;rounded=0;orthogonalLoop=1;jettySize=auto;html=1;" edge="1" parent="1" source="056Ldx9DOaQiwuDyh4kQ-67">
          <mxGeometry relative="1" as="geometry">
            <mxPoint x="460" y="790" as="targetPoint" />
          </mxGeometry>
        </mxCell>
        <mxCell id="056Ldx9DOaQiwuDyh4kQ-72" style="edgeStyle=orthogonalEdgeStyle;rounded=0;orthogonalLoop=1;jettySize=auto;html=1;" edge="1" parent="1" source="056Ldx9DOaQiwuDyh4kQ-67">
          <mxGeometry relative="1" as="geometry">
            <mxPoint x="342.5" y="890" as="targetPoint" />
          </mxGeometry>
        </mxCell>
        <mxCell id="056Ldx9DOaQiwuDyh4kQ-67" value="表单验证" style="rhombus;whiteSpace=wrap;html=1;" vertex="1" parent="1">
          <mxGeometry x="302.5" y="750" width="80" height="80" as="geometry" />
        </mxCell>
        <mxCell id="056Ldx9DOaQiwuDyh4kQ-69" value="表单验证不通过" style="text;html=1;align=center;verticalAlign=middle;resizable=0;points=[];autosize=1;strokeColor=none;fillColor=none;" vertex="1" parent="1">
          <mxGeometry x="374" y="760" width="100" height="20" as="geometry" />
        </mxCell>
        <mxCell id="056Ldx9DOaQiwuDyh4kQ-71" value="弹框内提示错误信息" style="whiteSpace=wrap;html=1;" vertex="1" parent="1">
          <mxGeometry x="474" y="760" width="120" height="60" as="geometry" />
        </mxCell>
        <mxCell id="056Ldx9DOaQiwuDyh4kQ-73" value="表单验证通过" style="text;html=1;align=center;verticalAlign=middle;resizable=0;points=[];autosize=1;strokeColor=none;fillColor=none;" vertex="1" parent="1">
          <mxGeometry x="345" y="850" width="90" height="20" as="geometry" />
        </mxCell>
        <mxCell id="056Ldx9DOaQiwuDyh4kQ-74" value="班级创建成功，关闭弹框，提示创建成功" style="rounded=0;whiteSpace=wrap;html=1;" vertex="1" parent="1">
          <mxGeometry x="300" y="890" width="90" height="40" as="geometry" />
        </mxCell>
      </root>
    </mxGraphModel>
  </diagram>
</mxfile>
